<mxfile host="app.diagrams.net" agent="Mozilla/5.0 (Macintosh; Intel Mac OS X 10_15_7) AppleWebKit/537.36 (KHTML, like Gecko) Chrome/132.0.0.0 Safari/537.36" version="26.0.12">
  <diagram name="Page-1" id="fNRXeKS03E-Rk9nVcpqg">
    <mxGraphModel dx="364" dy="489" grid="1" gridSize="10" guides="1" tooltips="1" connect="1" arrows="1" fold="1" page="1" pageScale="1" pageWidth="1700" pageHeight="1100" math="0" shadow="0">
      <root>
        <mxCell id="0" />
        <mxCell id="1" parent="0" />
        <mxCell id="eIaEefNCKrEp2oTQuui6-5" style="edgeStyle=none;curved=0;rounded=0;orthogonalLoop=1;jettySize=auto;html=1;entryX=0.5;entryY=0;entryDx=0;entryDy=0;fontSize=12;startSize=8;endSize=8;endArrow=none;startFill=0;" edge="1" parent="1" source="eIaEefNCKrEp2oTQuui6-1" target="eIaEefNCKrEp2oTQuui6-2">
          <mxGeometry relative="1" as="geometry">
            <Array as="points">
              <mxPoint x="110" y="100" />
            </Array>
          </mxGeometry>
        </mxCell>
        <mxCell id="eIaEefNCKrEp2oTQuui6-10" style="edgeStyle=none;curved=0;rounded=0;orthogonalLoop=1;jettySize=auto;html=1;entryX=0.5;entryY=0;entryDx=0;entryDy=0;fontSize=12;startSize=8;endSize=8;endArrow=none;startFill=0;" edge="1" parent="1" source="eIaEefNCKrEp2oTQuui6-1" target="eIaEefNCKrEp2oTQuui6-4">
          <mxGeometry relative="1" as="geometry">
            <Array as="points">
              <mxPoint x="780" y="100" />
            </Array>
          </mxGeometry>
        </mxCell>
        <mxCell id="eIaEefNCKrEp2oTQuui6-11" style="edgeStyle=none;curved=1;rounded=0;orthogonalLoop=1;jettySize=auto;html=1;fontSize=12;startSize=8;endSize=8;endArrow=none;startFill=0;" edge="1" parent="1" source="eIaEefNCKrEp2oTQuui6-1" target="eIaEefNCKrEp2oTQuui6-3">
          <mxGeometry relative="1" as="geometry" />
        </mxCell>
        <mxCell id="eIaEefNCKrEp2oTQuui6-27" style="edgeStyle=none;curved=0;rounded=0;orthogonalLoop=1;jettySize=auto;html=1;entryX=0.5;entryY=0;entryDx=0;entryDy=0;fontSize=12;startSize=8;endSize=8;exitX=0.25;exitY=1;exitDx=0;exitDy=0;endArrow=none;startFill=0;" edge="1" parent="1" source="eIaEefNCKrEp2oTQuui6-1" target="eIaEefNCKrEp2oTQuui6-23">
          <mxGeometry relative="1" as="geometry">
            <Array as="points">
              <mxPoint x="335" y="280" />
              <mxPoint x="220" y="280" />
              <mxPoint x="220" y="380" />
              <mxPoint x="170" y="380" />
            </Array>
          </mxGeometry>
        </mxCell>
        <mxCell id="eIaEefNCKrEp2oTQuui6-28" style="edgeStyle=none;curved=0;rounded=0;orthogonalLoop=1;jettySize=auto;html=1;entryX=0.5;entryY=0;entryDx=0;entryDy=0;fontSize=12;startSize=8;endSize=8;exitX=0.75;exitY=1;exitDx=0;exitDy=0;endArrow=none;startFill=0;" edge="1" parent="1" source="eIaEefNCKrEp2oTQuui6-1" target="eIaEefNCKrEp2oTQuui6-24">
          <mxGeometry relative="1" as="geometry">
            <mxPoint x="500" y="140" as="sourcePoint" />
            <Array as="points">
              <mxPoint x="465" y="260" />
              <mxPoint x="630" y="260" />
            </Array>
          </mxGeometry>
        </mxCell>
        <mxCell id="eIaEefNCKrEp2oTQuui6-1" value="Bibliothèque" style="rounded=0;whiteSpace=wrap;html=1;" vertex="1" parent="1">
          <mxGeometry x="270" y="70" width="260" height="60" as="geometry" />
        </mxCell>
        <mxCell id="eIaEefNCKrEp2oTQuui6-20" style="edgeStyle=none;curved=1;rounded=0;orthogonalLoop=1;jettySize=auto;html=1;entryX=0.5;entryY=0;entryDx=0;entryDy=0;fontSize=12;startSize=8;endSize=8;" edge="1" parent="1" source="eIaEefNCKrEp2oTQuui6-2" target="eIaEefNCKrEp2oTQuui6-16">
          <mxGeometry relative="1" as="geometry" />
        </mxCell>
        <mxCell id="eIaEefNCKrEp2oTQuui6-2" value="Gestion Admins" style="rounded=0;whiteSpace=wrap;html=1;" vertex="1" parent="1">
          <mxGeometry x="50" y="210" width="120" height="60" as="geometry" />
        </mxCell>
        <mxCell id="eIaEefNCKrEp2oTQuui6-21" style="edgeStyle=none;curved=1;rounded=0;orthogonalLoop=1;jettySize=auto;html=1;entryX=0.5;entryY=0;entryDx=0;entryDy=0;fontSize=12;startSize=8;endSize=8;" edge="1" parent="1" source="eIaEefNCKrEp2oTQuui6-3" target="eIaEefNCKrEp2oTQuui6-17">
          <mxGeometry relative="1" as="geometry" />
        </mxCell>
        <mxCell id="eIaEefNCKrEp2oTQuui6-3" value="Gestion Users" style="rounded=0;whiteSpace=wrap;html=1;" vertex="1" parent="1">
          <mxGeometry x="340" y="320" width="120" height="60" as="geometry" />
        </mxCell>
        <mxCell id="eIaEefNCKrEp2oTQuui6-22" style="edgeStyle=none;curved=1;rounded=0;orthogonalLoop=1;jettySize=auto;html=1;entryX=0.5;entryY=0;entryDx=0;entryDy=0;fontSize=12;startSize=8;endSize=8;" edge="1" parent="1" source="eIaEefNCKrEp2oTQuui6-4" target="eIaEefNCKrEp2oTQuui6-18">
          <mxGeometry relative="1" as="geometry" />
        </mxCell>
        <mxCell id="eIaEefNCKrEp2oTQuui6-4" value="Gestion ressources" style="rounded=0;whiteSpace=wrap;html=1;" vertex="1" parent="1">
          <mxGeometry x="720" y="210" width="120" height="60" as="geometry" />
        </mxCell>
        <mxCell id="eIaEefNCKrEp2oTQuui6-6" value="" style="ellipse;whiteSpace=wrap;html=1;aspect=fixed;" vertex="1" parent="1">
          <mxGeometry x="95" y="85" width="30" height="30" as="geometry" />
        </mxCell>
        <mxCell id="eIaEefNCKrEp2oTQuui6-9" value="" style="endArrow=none;html=1;rounded=0;fontSize=12;startSize=8;endSize=8;curved=1;" edge="1" parent="1">
          <mxGeometry width="50" height="50" relative="1" as="geometry">
            <mxPoint x="90" y="115" as="sourcePoint" />
            <mxPoint x="130" y="115" as="targetPoint" />
            <Array as="points">
              <mxPoint x="110" y="135" />
            </Array>
          </mxGeometry>
        </mxCell>
        <mxCell id="eIaEefNCKrEp2oTQuui6-12" value="" style="ellipse;whiteSpace=wrap;html=1;aspect=fixed;" vertex="1" parent="1">
          <mxGeometry x="765" y="85" width="30" height="30" as="geometry" />
        </mxCell>
        <mxCell id="eIaEefNCKrEp2oTQuui6-13" value="" style="endArrow=none;html=1;rounded=0;fontSize=12;startSize=8;endSize=8;curved=1;" edge="1" parent="1">
          <mxGeometry width="50" height="50" relative="1" as="geometry">
            <mxPoint x="760" y="115" as="sourcePoint" />
            <mxPoint x="800" y="115" as="targetPoint" />
            <Array as="points">
              <mxPoint x="780" y="135" />
            </Array>
          </mxGeometry>
        </mxCell>
        <mxCell id="eIaEefNCKrEp2oTQuui6-14" value="Modification des administrateurs" style="text;strokeColor=none;fillColor=none;html=1;align=center;verticalAlign=middle;whiteSpace=wrap;rounded=0;fontSize=16;" vertex="1" parent="1">
          <mxGeometry x="35" y="50" width="150" height="30" as="geometry" />
        </mxCell>
        <mxCell id="eIaEefNCKrEp2oTQuui6-15" value="Modification des ressources" style="text;strokeColor=none;fillColor=none;html=1;align=center;verticalAlign=middle;whiteSpace=wrap;rounded=0;fontSize=16;" vertex="1" parent="1">
          <mxGeometry x="705" y="40" width="150" height="30" as="geometry" />
        </mxCell>
        <mxCell id="eIaEefNCKrEp2oTQuui6-16" value="Admin" style="rounded=0;whiteSpace=wrap;html=1;" vertex="1" parent="1">
          <mxGeometry x="50" y="310" width="120" height="60" as="geometry" />
        </mxCell>
        <mxCell id="eIaEefNCKrEp2oTQuui6-17" value="Utilisateur" style="rounded=0;whiteSpace=wrap;html=1;" vertex="1" parent="1">
          <mxGeometry x="340" y="420" width="120" height="60" as="geometry" />
        </mxCell>
        <mxCell id="eIaEefNCKrEp2oTQuui6-18" value="Ressource" style="rounded=0;whiteSpace=wrap;html=1;" vertex="1" parent="1">
          <mxGeometry x="720" y="310" width="120" height="60" as="geometry" />
        </mxCell>
        <mxCell id="eIaEefNCKrEp2oTQuui6-29" style="edgeStyle=none;curved=1;rounded=0;orthogonalLoop=1;jettySize=auto;html=1;entryX=0.5;entryY=0;entryDx=0;entryDy=0;fontSize=12;startSize=8;endSize=8;endArrow=none;startFill=0;" edge="1" parent="1" source="eIaEefNCKrEp2oTQuui6-23" target="eIaEefNCKrEp2oTQuui6-25">
          <mxGeometry relative="1" as="geometry" />
        </mxCell>
        <mxCell id="eIaEefNCKrEp2oTQuui6-23" value="Gestion réservation" style="rounded=0;whiteSpace=wrap;html=1;" vertex="1" parent="1">
          <mxGeometry x="110" y="480" width="120" height="60" as="geometry" />
        </mxCell>
        <mxCell id="eIaEefNCKrEp2oTQuui6-30" style="edgeStyle=none;curved=1;rounded=0;orthogonalLoop=1;jettySize=auto;html=1;entryX=0.5;entryY=0;entryDx=0;entryDy=0;fontSize=12;startSize=8;endSize=8;endArrow=none;startFill=0;" edge="1" parent="1" source="eIaEefNCKrEp2oTQuui6-24" target="eIaEefNCKrEp2oTQuui6-26">
          <mxGeometry relative="1" as="geometry" />
        </mxCell>
        <mxCell id="eIaEefNCKrEp2oTQuui6-24" value="Gestion Emprunts" style="rounded=0;whiteSpace=wrap;html=1;" vertex="1" parent="1">
          <mxGeometry x="570" y="470" width="120" height="60" as="geometry" />
        </mxCell>
        <mxCell id="eIaEefNCKrEp2oTQuui6-31" style="edgeStyle=none;curved=1;rounded=0;orthogonalLoop=1;jettySize=auto;html=1;entryX=0;entryY=0.5;entryDx=0;entryDy=0;fontSize=12;startSize=8;endSize=8;startArrow=classic;startFill=1;" edge="1" parent="1" source="eIaEefNCKrEp2oTQuui6-25" target="eIaEefNCKrEp2oTQuui6-26">
          <mxGeometry relative="1" as="geometry" />
        </mxCell>
        <mxCell id="eIaEefNCKrEp2oTQuui6-43" style="edgeStyle=none;curved=0;rounded=0;orthogonalLoop=1;jettySize=auto;html=1;entryX=0.5;entryY=1;entryDx=0;entryDy=0;fontSize=12;startSize=8;endSize=8;exitX=0.5;exitY=1;exitDx=0;exitDy=0;endArrow=none;startFill=0;" edge="1" parent="1" source="eIaEefNCKrEp2oTQuui6-25" target="eIaEefNCKrEp2oTQuui6-26">
          <mxGeometry relative="1" as="geometry">
            <Array as="points">
              <mxPoint x="170" y="720" />
              <mxPoint x="400" y="720" />
              <mxPoint x="630" y="720" />
            </Array>
          </mxGeometry>
        </mxCell>
        <mxCell id="eIaEefNCKrEp2oTQuui6-25" value="Reservation" style="rounded=0;whiteSpace=wrap;html=1;" vertex="1" parent="1">
          <mxGeometry x="110" y="600" width="120" height="60" as="geometry" />
        </mxCell>
        <mxCell id="eIaEefNCKrEp2oTQuui6-26" value="Emprunt" style="rounded=0;whiteSpace=wrap;html=1;" vertex="1" parent="1">
          <mxGeometry x="570" y="600" width="120" height="60" as="geometry" />
        </mxCell>
        <mxCell id="eIaEefNCKrEp2oTQuui6-32" value="" style="ellipse;whiteSpace=wrap;html=1;aspect=fixed;" vertex="1" parent="1">
          <mxGeometry x="205" y="260" width="30" height="30" as="geometry" />
        </mxCell>
        <mxCell id="eIaEefNCKrEp2oTQuui6-33" value="" style="endArrow=none;html=1;rounded=0;fontSize=12;startSize=8;endSize=8;curved=1;" edge="1" parent="1">
          <mxGeometry width="50" height="50" relative="1" as="geometry">
            <mxPoint x="200" y="290" as="sourcePoint" />
            <mxPoint x="240" y="290" as="targetPoint" />
            <Array as="points">
              <mxPoint x="220" y="310" />
            </Array>
          </mxGeometry>
        </mxCell>
        <mxCell id="eIaEefNCKrEp2oTQuui6-34" value="Modification des réservation" style="text;strokeColor=none;fillColor=none;html=1;align=center;verticalAlign=middle;whiteSpace=wrap;rounded=0;fontSize=16;" vertex="1" parent="1">
          <mxGeometry x="205" y="225" width="120" height="30" as="geometry" />
        </mxCell>
        <mxCell id="eIaEefNCKrEp2oTQuui6-35" value="" style="ellipse;whiteSpace=wrap;html=1;aspect=fixed;" vertex="1" parent="1">
          <mxGeometry x="615" y="240" width="30" height="30" as="geometry" />
        </mxCell>
        <mxCell id="eIaEefNCKrEp2oTQuui6-36" value="" style="endArrow=none;html=1;rounded=0;fontSize=12;startSize=8;endSize=8;curved=1;" edge="1" parent="1">
          <mxGeometry width="50" height="50" relative="1" as="geometry">
            <mxPoint x="610" y="270" as="sourcePoint" />
            <mxPoint x="650" y="270" as="targetPoint" />
            <Array as="points">
              <mxPoint x="630" y="290" />
            </Array>
          </mxGeometry>
        </mxCell>
        <mxCell id="eIaEefNCKrEp2oTQuui6-37" value="Modifications des emprunts" style="text;strokeColor=none;fillColor=none;html=1;align=center;verticalAlign=middle;whiteSpace=wrap;rounded=0;fontSize=16;" vertex="1" parent="1">
          <mxGeometry x="500" y="210" width="150" height="30" as="geometry" />
        </mxCell>
        <mxCell id="eIaEefNCKrEp2oTQuui6-44" style="edgeStyle=none;curved=1;rounded=0;orthogonalLoop=1;jettySize=auto;html=1;fontSize=12;startSize=8;endSize=8;endArrow=none;startFill=0;" edge="1" parent="1" source="eIaEefNCKrEp2oTQuui6-38">
          <mxGeometry relative="1" as="geometry">
            <mxPoint x="400" y="720" as="targetPoint" />
          </mxGeometry>
        </mxCell>
        <mxCell id="eIaEefNCKrEp2oTQuui6-49" style="edgeStyle=none;curved=1;rounded=0;orthogonalLoop=1;jettySize=auto;html=1;entryX=0.5;entryY=0;entryDx=0;entryDy=0;fontSize=12;startSize=8;endSize=8;endArrow=none;startFill=0;" edge="1" parent="1" source="eIaEefNCKrEp2oTQuui6-38" target="eIaEefNCKrEp2oTQuui6-48">
          <mxGeometry relative="1" as="geometry" />
        </mxCell>
        <mxCell id="eIaEefNCKrEp2oTQuui6-38" value="Statistiques" style="rounded=0;whiteSpace=wrap;html=1;" vertex="1" parent="1">
          <mxGeometry x="340" y="810" width="120" height="60" as="geometry" />
        </mxCell>
        <mxCell id="eIaEefNCKrEp2oTQuui6-45" value="" style="ellipse;whiteSpace=wrap;html=1;aspect=fixed;" vertex="1" parent="1">
          <mxGeometry x="385" y="700" width="30" height="30" as="geometry" />
        </mxCell>
        <mxCell id="eIaEefNCKrEp2oTQuui6-46" value="" style="endArrow=none;html=1;rounded=0;fontSize=12;startSize=8;endSize=8;curved=1;" edge="1" parent="1">
          <mxGeometry width="50" height="50" relative="1" as="geometry">
            <mxPoint x="380" y="730" as="sourcePoint" />
            <mxPoint x="420" y="730" as="targetPoint" />
            <Array as="points">
              <mxPoint x="400" y="750" />
            </Array>
          </mxGeometry>
        </mxCell>
        <mxCell id="eIaEefNCKrEp2oTQuui6-47" value="Apppelle des ressources nécessaires pour la génération de rapport" style="text;strokeColor=none;fillColor=none;html=1;align=center;verticalAlign=middle;whiteSpace=wrap;rounded=0;fontSize=16;" vertex="1" parent="1">
          <mxGeometry x="255" y="650" width="290" height="30" as="geometry" />
        </mxCell>
        <mxCell id="eIaEefNCKrEp2oTQuui6-48" value="Génération de rapports" style="rounded=0;whiteSpace=wrap;html=1;" vertex="1" parent="1">
          <mxGeometry x="305" y="940" width="190" height="60" as="geometry" />
        </mxCell>
        <mxCell id="eIaEefNCKrEp2oTQuui6-50" value="" style="rounded=0;whiteSpace=wrap;html=1;" vertex="1" parent="1">
          <mxGeometry x="250" y="75" width="30" height="10" as="geometry" />
        </mxCell>
        <mxCell id="eIaEefNCKrEp2oTQuui6-52" value="" style="rounded=0;whiteSpace=wrap;html=1;" vertex="1" parent="1">
          <mxGeometry x="250" y="95" width="30" height="10" as="geometry" />
        </mxCell>
        <mxCell id="eIaEefNCKrEp2oTQuui6-53" value="" style="rounded=0;whiteSpace=wrap;html=1;" vertex="1" parent="1">
          <mxGeometry x="30" y="220" width="30" height="10" as="geometry" />
        </mxCell>
        <mxCell id="eIaEefNCKrEp2oTQuui6-54" value="" style="rounded=0;whiteSpace=wrap;html=1;" vertex="1" parent="1">
          <mxGeometry x="30" y="240" width="30" height="10" as="geometry" />
        </mxCell>
        <mxCell id="eIaEefNCKrEp2oTQuui6-55" value="" style="rounded=0;whiteSpace=wrap;html=1;" vertex="1" parent="1">
          <mxGeometry x="30" y="320" width="30" height="10" as="geometry" />
        </mxCell>
        <mxCell id="eIaEefNCKrEp2oTQuui6-56" value="" style="rounded=0;whiteSpace=wrap;html=1;" vertex="1" parent="1">
          <mxGeometry x="30" y="340" width="30" height="10" as="geometry" />
        </mxCell>
        <mxCell id="eIaEefNCKrEp2oTQuui6-57" value="" style="rounded=0;whiteSpace=wrap;html=1;" vertex="1" parent="1">
          <mxGeometry x="90" y="485" width="30" height="10" as="geometry" />
        </mxCell>
        <mxCell id="eIaEefNCKrEp2oTQuui6-58" value="" style="rounded=0;whiteSpace=wrap;html=1;" vertex="1" parent="1">
          <mxGeometry x="90" y="520" width="30" height="10" as="geometry" />
        </mxCell>
        <mxCell id="eIaEefNCKrEp2oTQuui6-59" value="" style="rounded=0;whiteSpace=wrap;html=1;" vertex="1" parent="1">
          <mxGeometry x="90" y="610" width="30" height="10" as="geometry" />
        </mxCell>
        <mxCell id="eIaEefNCKrEp2oTQuui6-60" value="" style="rounded=0;whiteSpace=wrap;html=1;" vertex="1" parent="1">
          <mxGeometry x="90" y="630" width="30" height="10" as="geometry" />
        </mxCell>
        <mxCell id="eIaEefNCKrEp2oTQuui6-61" value="" style="rounded=0;whiteSpace=wrap;html=1;" vertex="1" parent="1">
          <mxGeometry x="320" y="820" width="30" height="10" as="geometry" />
        </mxCell>
        <mxCell id="eIaEefNCKrEp2oTQuui6-62" value="" style="rounded=0;whiteSpace=wrap;html=1;" vertex="1" parent="1">
          <mxGeometry x="320" y="840" width="30" height="10" as="geometry" />
        </mxCell>
        <mxCell id="eIaEefNCKrEp2oTQuui6-68" value="" style="rounded=0;whiteSpace=wrap;html=1;" vertex="1" parent="1">
          <mxGeometry x="280" y="950" width="30" height="10" as="geometry" />
        </mxCell>
        <mxCell id="eIaEefNCKrEp2oTQuui6-69" value="" style="rounded=0;whiteSpace=wrap;html=1;" vertex="1" parent="1">
          <mxGeometry x="280" y="970" width="30" height="10" as="geometry" />
        </mxCell>
        <mxCell id="eIaEefNCKrEp2oTQuui6-70" value="" style="rounded=0;whiteSpace=wrap;html=1;" vertex="1" parent="1">
          <mxGeometry x="545" y="610" width="30" height="10" as="geometry" />
        </mxCell>
        <mxCell id="eIaEefNCKrEp2oTQuui6-71" value="" style="rounded=0;whiteSpace=wrap;html=1;" vertex="1" parent="1">
          <mxGeometry x="545" y="640" width="30" height="10" as="geometry" />
        </mxCell>
        <mxCell id="eIaEefNCKrEp2oTQuui6-72" value="" style="rounded=0;whiteSpace=wrap;html=1;" vertex="1" parent="1">
          <mxGeometry x="545" y="475" width="30" height="10" as="geometry" />
        </mxCell>
        <mxCell id="eIaEefNCKrEp2oTQuui6-73" value="" style="rounded=0;whiteSpace=wrap;html=1;" vertex="1" parent="1">
          <mxGeometry x="545" y="495" width="30" height="10" as="geometry" />
        </mxCell>
        <mxCell id="eIaEefNCKrEp2oTQuui6-74" value="" style="rounded=0;whiteSpace=wrap;html=1;" vertex="1" parent="1">
          <mxGeometry x="320" y="430" width="30" height="10" as="geometry" />
        </mxCell>
        <mxCell id="eIaEefNCKrEp2oTQuui6-75" value="" style="rounded=0;whiteSpace=wrap;html=1;" vertex="1" parent="1">
          <mxGeometry x="320" y="450" width="30" height="10" as="geometry" />
        </mxCell>
        <mxCell id="eIaEefNCKrEp2oTQuui6-76" value="" style="rounded=0;whiteSpace=wrap;html=1;" vertex="1" parent="1">
          <mxGeometry x="320" y="325" width="30" height="10" as="geometry" />
        </mxCell>
        <mxCell id="eIaEefNCKrEp2oTQuui6-77" value="" style="rounded=0;whiteSpace=wrap;html=1;" vertex="1" parent="1">
          <mxGeometry x="320" y="345" width="30" height="10" as="geometry" />
        </mxCell>
        <mxCell id="eIaEefNCKrEp2oTQuui6-78" value="" style="rounded=0;whiteSpace=wrap;html=1;" vertex="1" parent="1">
          <mxGeometry x="700" y="220" width="30" height="10" as="geometry" />
        </mxCell>
        <mxCell id="eIaEefNCKrEp2oTQuui6-79" value="" style="rounded=0;whiteSpace=wrap;html=1;" vertex="1" parent="1">
          <mxGeometry x="700" y="250" width="30" height="10" as="geometry" />
        </mxCell>
        <mxCell id="eIaEefNCKrEp2oTQuui6-80" value="" style="rounded=0;whiteSpace=wrap;html=1;" vertex="1" parent="1">
          <mxGeometry x="700" y="315" width="30" height="10" as="geometry" />
        </mxCell>
        <mxCell id="eIaEefNCKrEp2oTQuui6-81" value="" style="rounded=0;whiteSpace=wrap;html=1;" vertex="1" parent="1">
          <mxGeometry x="700" y="335" width="30" height="10" as="geometry" />
        </mxCell>
      </root>
    </mxGraphModel>
  </diagram>
</mxfile>
